<svg xmlns="http://www.w3.org/2000/svg" width="300" height="157" fill="none" viewBox="0 0 300 157">
    <path fill="#45906A" d="M68.525 131.786c4.622-3.224 6.177-7.199 6.701-12.809.524-5.61-1.53-11.412-5.47-15.442-3.284-3.357-7.808-5.563-10.253-9.576-2.607-4.273-2.518-10.1-6.139-13.56-2.487-2.376-6.125-3.011-9.15-4.655-2.466-1.342-4.498-3.344-6.756-5.014-2.258-1.67-4.937-3.055-7.736-2.846-4.221.315-7.51 4.465-7.71 8.695-.2 4.23 2.16 8.277 5.389 11.016 2.343 1.989 5.226 3.51 6.76 6.168 2.88 4.997-.128 11.94 2.965 16.809 2.258 3.557 7.382 5.257 8.094 9.41.26 1.53-.17 3.084-.158 4.635.038 4.844 4.567 8.75 9.333 9.61 4.771.865 9.636-.63 14.13-2.441z"/>
    <path fill="#E0E0E0" d="M38.878 84.917c-.013.013.161.208.507.566.391.396.898.908 1.533 1.542.677.656 1.495 1.47 2.381 2.471.9.993 1.968 2.079 3.02 3.4.542.647 1.104 1.324 1.692 2.031.583.707 1.133 1.491 1.738 2.28 1.227 1.554 2.381 3.331 3.633 5.171 2.399 3.749 4.806 8.017 6.931 12.694 2.083 4.699 3.68 9.334 4.89 13.615.546 2.155 1.108 4.2 1.453 6.147.188.971.41 1.904.55 2.811.136.908.268 1.781.396 2.616.29 1.661.388 3.182.537 4.515.157 1.329.225 2.48.268 3.425.055.895.098 1.615.136 2.169.039.494.069.758.085.758.022 0 .03-.26.03-.758-.008-.559-.017-1.278-.025-2.177-.004-.946-.039-2.105-.17-3.442-.12-1.338-.188-2.871-.452-4.541l-.358-2.633c-.132-.916-.34-1.853-.52-2.833-.332-1.963-.877-4.021-1.41-6.194-1.192-4.315-2.781-8.984-4.877-13.712-2.143-4.707-4.58-8.993-7.012-12.75-1.27-1.844-2.445-3.616-3.698-5.167-.613-.784-1.175-1.563-1.772-2.27-.6-.7-1.175-1.372-1.73-2.015-1.073-1.308-2.172-2.377-3.096-3.353-.916-.984-1.755-1.776-2.462-2.411l-1.61-1.465c-.375-.337-.576-.503-.588-.49z"/>
    <path fill="#45906A" d="M275.695 48.907s-4.064-2.688-9.018 7.033c-4.954 9.721-6.833 15.327-6.833 15.327s-1.307 2.037-2.709.707c-1.397-1.329-3.314-5.107-5.691-4.426-2.467.708-3.28 3.46-2.807 7.502.468 4.043 1.175 12.942 1.235 13.747.06.788-.392 1.955-1.491 1.2-1.099-.753-7.416-7.79-10.577-4.591-3.161 3.199 0 14.249.324 15.463.323 1.214.085 1.734-.495 2.036-.575.303-2.479-2.266-4.357-4.191-1.879-1.93-4.397-3.834-6.067-1.836-1.669 1.998-2.202 10.291 5.692 23.757l4.064 6.002 7.271-.405c15.506-1.81 21.802-7.233 22.394-9.768.592-2.534-2.445-3.395-5.116-3.735-2.671-.341-5.861-.311-5.972-.955-.107-.643.162-1.146 1.329-1.618 1.163-.473 11.889-4.605 12.541-9.053.652-4.447-8.771-5.256-10.036-5.678-1.265-.422-.605-1.487.059-1.913.678-.434 8.209-5.23 11.719-7.293 3.51-2.061 5.219-4.366 4.298-6.76-.89-2.309-5.056-1.563-6.964-1.879-1.905-.315-1.07-2.585-1.07-2.585s3.344-4.874 8.12-14.684c4.775-9.81.059-11.45.059-11.45"/>
    <path fill="#E0E0E0" d="M271.244 57.605s-.026.073-.09.21c-.068.144-.162.349-.285.608-.26.541-.631 1.325-1.112 2.33-.967 2.02-2.39 4.938-4.158 8.529-3.535 7.19-8.502 17.082-14.028 27.987-5.525 10.91-10.513 20.788-14.087 27.962-1.781 3.582-3.22 6.483-4.221 8.498-.495.997-.882 1.772-1.151 2.309-.132.256-.23.456-.302.596-.068.137-.111.201-.111.201s.026-.073.09-.209l.285-.609c.26-.541.631-1.325 1.112-2.326.967-2.019 2.39-4.933 4.158-8.528 3.535-7.191 8.506-17.082 14.027-27.992 5.521-10.905 10.514-20.784 14.083-27.953l4.222-8.499c.494-.996.882-1.772 1.15-2.308.132-.256.23-.456.303-.597.072-.145.115-.209.115-.209z"/>
    <path fill="#E0E0E0" d="M253.914 72.936c.017-.005.081.17.183.49.107.319.243.788.409 1.367.328 1.159.742 2.773 1.163 4.558.409 1.764.784 3.361 1.065 4.58l.332 1.384c.081.328.115.511.103.515-.013.005-.081-.17-.188-.49-.102-.32-.243-.788-.4-1.367-.315-1.163-.707-2.782-1.133-4.567-.422-1.759-.805-3.352-1.099-4.57-.137-.55-.247-1.01-.341-1.385-.073-.328-.111-.511-.094-.515zM257.834 85.962c-.017-.06 3.267-1.056 7.34-2.228 4.072-1.171 7.386-2.07 7.403-2.01.017.06-3.267 1.056-7.339 2.227-4.073 1.172-7.387 2.07-7.404 2.011zM248.599 102.327c0-.017.191-.026.536-.026.392 0 .878.004 1.457.004 1.227.005 2.923 0 4.797-.072 1.87-.068 3.565-.187 4.788-.285.575-.047 1.061-.086 1.448-.115.341-.026.533-.03.537-.017 0 .017-.183.051-.524.102s-.835.119-1.444.187c-1.223.137-2.918.286-4.792.354-1.875.072-3.579.051-4.805.008-.614-.025-1.112-.051-1.453-.076-.358-.026-.545-.047-.545-.064zM242.459 91.329c.013-.009.115.136.286.404l.703 1.146c.583.976 1.376 2.326 2.24 3.83.865 1.503 1.636 2.867 2.186 3.863l.639 1.185c.144.281.221.443.208.447-.012.008-.115-.136-.285-.405-.192-.311-.426-.694-.703-1.146-.584-.975-1.376-2.326-2.241-3.83-.864-1.503-1.635-2.866-2.181-3.863l-.639-1.184c-.153-.281-.23-.439-.213-.447zM232.468 104.742c.013-.008.14.179.358.524.234.384.541.878.903 1.47.754 1.244 1.785 2.969 2.909 4.886 1.125 1.913 2.134 3.655 2.854 4.92.341.605.622 1.112.844 1.504.196.358.294.558.281.567-.013.008-.141-.179-.358-.524-.234-.384-.541-.874-.903-1.466-.754-1.244-1.785-2.969-2.909-4.886-1.125-1.913-2.135-3.655-2.855-4.92-.34-.605-.621-1.112-.843-1.504-.192-.362-.294-.562-.281-.571zM240.52 118.22c0-.017.242-.034.677-.047.477-.017 1.095-.034 1.844-.059 1.559-.052 3.706-.133 6.079-.29 2.373-.154 4.516-.349 6.066-.499l1.836-.178c.435-.039.673-.056.678-.039 0 .017-.235.06-.665.128-.43.068-1.056.153-1.832.251-1.546.192-3.693.414-6.07.567-2.377.157-4.533.213-6.092.226-.779.004-1.41 0-1.848-.013-.431-.017-.673-.03-.673-.047z"/>
    <path fill="#FFE584" d="M188.114 0h29.244c1.274 0 2.305 1.03 2.305 2.305v19.378c0 1.273-1.031 2.304-2.305 2.304h-15.399l-7.323 7.323v-7.323h-6.522c-.945 0-1.708-.766-1.708-1.708V1.71c0-.942.767-1.709 1.708-1.709z"/>
    <path fill="#FAFAFA" d="M197.819 12.4c0 .95-.771 1.722-1.721 1.722-.95 0-1.721-.771-1.721-1.721 0-.95.771-1.721 1.721-1.721.95 0 1.721.77 1.721 1.72zM204.624 12.4c0 .95-.771 1.722-1.721 1.722-.95 0-1.721-.771-1.721-1.721 0-.95.771-1.721 1.721-1.721.95 0 1.721.77 1.721 1.72zM211.432 12.4c0 .95-.771 1.722-1.721 1.722-.95 0-1.721-.771-1.721-1.721 0-.95.771-1.721 1.721-1.721.95 0 1.721.77 1.721 1.72z"/>
    <path fill="#C3E4AC" d="M235.641 146.315c-7.318-7.114-7.446-18.126-5.551-27.698.316-1.597.418-3.318 1.41-4.605.993-1.286 2.936-1.959 4.265-1.047 1.103.754 1.397 2.227 1.874 3.484.639 1.67 1.755 3.152 3.182 4.213.937.699 2.151 1.227 3.25.835 1.513-.541 1.985-2.428 2.237-4.026.468-2.981.933-5.963 1.401-8.945.252-1.598.511-3.233 1.257-4.669.745-1.436 2.07-2.667 3.659-2.846 1.589-.179 3.327 1.006 3.391 2.62.026.673-.217 1.325-.277 1.998-.064.669.124 1.457.724 1.742.609.29 1.321-.059 1.875-.447 1.912-1.346 3.369-3.242 4.754-5.137 1.384-1.896 2.743-3.847 4.528-5.364 1.785-1.516 4.081-2.573 6.39-2.33 2.309.243 4.519 2.054 4.728 4.397.213 2.347-1.474 4.417-3.203 6.01-2.565 2.36-5.461 4.345-8.58 5.87-.562.277-1.171.571-1.461 1.133-.519 1.01.315 2.233 1.312 2.752 1.125.592 2.441.678 3.659 1.027 1.223.349 2.484 1.12 2.761 2.373.388 1.738-1.257 3.229-2.782 4.132-3.058 1.806-6.419 3.08-9.895 3.748-1.244.239-2.544.414-3.626 1.087-1.082.673-1.887 2.015-1.499 3.233.388 1.218 1.802 1.819 3.071 1.793 1.27-.025 2.48-.515 3.723-.766 2.331-.473 5.142.14 6.241 2.27.72 1.397.52 3.148-.192 4.558-.711 1.41-1.865 2.539-3.067 3.553-4.191 3.557-9.239 6.147-14.624 7.08-5.376.937-10.172.647-14.935-2.028z"/>
    <path fill="#45906A" d="M234.354 153.429c.971-3.758 2.538-8.124 4.758-12.746 2.206-4.626 5.048-9.495 8.196-14.488.792-1.244 1.572-2.475 2.343-3.689.771-1.209 1.538-2.407 2.36-3.531 1.631-2.258 3.373-4.307 5.09-6.198 1.713-1.896 3.408-3.63 5.006-5.24 1.601-1.606 3.122-3.08 4.566-4.358 2.88-2.573 5.444-4.37 7.255-5.533.903-.584 1.618-1.014 2.108-1.3.235-.136.422-.242.558-.319.128-.072.192-.106.196-.098.005.004-.059.047-.179.128l-.545.345c-.477.302-1.184.745-2.079 1.346-1.789 1.188-4.323 3.007-7.178 5.593-1.431 1.287-2.939 2.765-4.532 4.375-1.589 1.619-3.276 3.357-4.98 5.248-1.704 1.892-3.433 3.936-5.056 6.186-.814 1.12-1.572 2.308-2.348 3.522-.771 1.215-1.55 2.441-2.342 3.685-3.144 4.989-5.986 9.845-8.201 14.45-2.223 4.6-3.808 8.941-4.801 12.677"/>
    <path fill="#263238" d="M252.096 118.975c-.021 0-.034-.251-.047-.707-.012-.456-.008-1.116.009-1.93.034-1.627.158-3.876.302-6.351.145-2.479.235-4.72.243-6.343.004-.814.004-1.47 0-1.921-.004-.456.004-.707.026-.707.021 0 .051.247.093.703.043.451.077 1.111.098 1.925.047 1.627-.012 3.881-.157 6.36-.149 2.445-.286 4.652-.388 6.343-.042.762-.076 1.406-.106 1.921-.03.456-.056.707-.073.707z"/>
    <path fill="#263238" d="M273.263 118.486c-.005.022-.303.009-.835-.034-.537-.038-1.308-.098-2.266-.144-1.917-.103-4.567-.154-7.494-.081-2.926.076-5.571.259-7.484.447-.954.085-1.73.179-2.262.238-.533.064-.831.086-.835.069-.004-.022.29-.086.818-.184.528-.093 1.299-.217 2.253-.332 1.909-.243 4.563-.46 7.498-.537 2.935-.072 5.593.013 7.51.171.958.072 1.734.166 2.266.238.541.077.835.128.831.149zM239.422 140.346c-.008.004-.043-.09-.098-.273-.064-.217-.136-.481-.23-.801-.196-.694-.456-1.712-.758-2.969-.609-2.513-1.338-6.015-2.092-9.891-.754-3.877-1.448-7.378-2.006-9.905-.273-1.226-.499-2.236-.665-2.986-.072-.323-.128-.592-.174-.813-.039-.188-.051-.286-.043-.29.009 0 .043.094.098.273.064.217.136.481.23.8.196.695.456 1.713.758 2.97.609 2.513 1.338 6.015 2.092 9.891.754 3.872 1.448 7.378 2.006 9.9.273 1.227.499 2.236.665 2.986.072.324.128.596.174.814.039.191.056.294.043.294z"/>
    <path fill="#263238" d="M268.16 135.996c0 .008-.098.034-.29.068-.226.038-.502.081-.835.136-.771.12-1.81.277-3.08.473-2.598.401-6.181.988-10.138 1.649-3.962.66-7.553 1.218-10.16 1.563-1.303.175-2.36.303-3.093.375-.336.034-.617.06-.843.081-.192.017-.294.017-.298.008 0-.008.098-.034.29-.068.225-.038.502-.081.834-.136.771-.119 1.811-.277 3.076-.473 2.599-.396 6.181-.988 10.143-1.648 3.957-.661 7.548-1.219 10.16-1.564 1.303-.175 2.36-.302 3.092-.375.337-.034.618-.059.844-.081.196-.017.294-.017.298-.008z"/>
    <path fill="#C3E4AC" d="M39.086 112.707c2.305-.618 4.822-.034 6.85 1.218 2.028 1.257 3.612 3.131 4.877 5.155 2.445 3.915 3.285 9.159 3.37 13.776-5.12-.238-9.474-4.285-11.553-6.479-3.288-3.472-7.122-11.732-3.544-13.67zM62.407 135.987c-2.096-1.644-3.02-4.541-2.565-7.169.456-2.624 2.164-4.941 4.371-6.437 1.022-.69 2.283-1.235 3.463-.881 1.104.332 1.866 1.41 2.083 2.543.218 1.133-.03 2.304-.413 3.391-1.316 3.727-3.271 7.092-6.94 8.553z"/>
    <path fill="#263238" d="M67.059 150.594c-.03.017-.213-.277-.511-.827-.298-.545-.712-1.346-1.193-2.351-.95-2.002-2.228-4.852-2.837-8.239-.605-3.391-.162-6.585.69-8.669.418-1.047.882-1.84 1.252-2.342.371-.507.614-.754.64-.737.089.059-.823 1.128-1.547 3.207-.741 2.058-1.112 5.15-.524 8.456.592 3.306 1.798 6.143 2.663 8.179.877 2.032 1.435 3.289 1.367 3.323z"/>
    <path fill="#34527E" d="M42.562 118.743c.025-.021.422.388 1.112 1.15.69.763 1.67 1.883 2.867 3.28 2.394 2.795 5.635 6.705 9.107 11.114 3.472 4.409 6.518 8.482 8.673 11.459 1.078 1.491 1.939 2.705 2.518 3.553.58.848.886 1.329.86 1.35-.03.022-.392-.417-1.022-1.231-.682-.886-1.572-2.053-2.645-3.454-2.228-2.923-5.317-6.953-8.784-11.357-3.468-4.405-6.663-8.35-8.98-11.199-1.112-1.376-2.036-2.514-2.74-3.383-.65-.805-.992-1.261-.966-1.282z"/>
    <path fill="#C3E4AC" d="M58.95 141.678c-4.387-3.51-10.53-4.703-15.91-3.084-1.372.413-2.888 1.248-3.024 2.671-.137 1.427 1.2 2.543 2.483 3.178 5.342 2.654 12.277 1.64 16.639-2.424"/>
    <path fill="#263238" d="M46.444 141.204c-.009-.034.306-.128.89-.268.29-.077.647-.154 1.073-.2.422-.051.903-.141 1.44-.145 1.07-.077 2.356-.026 3.762.166 1.401.221 2.926.596 4.46 1.188 1.525.614 2.892 1.385 4.068 2.186 1.159.826 2.13 1.665 2.858 2.453.388.371.678.763.95 1.091.277.324.486.626.648.877.328.499.494.784.468.806-.08.059-.813-1.044-2.321-2.514-.746-.741-1.721-1.533-2.867-2.317-1.163-.758-2.5-1.495-3.987-2.096-1.496-.579-2.978-.958-4.341-1.201-1.372-.209-2.624-.298-3.677-.269-2.117.039-3.407.341-3.425.243z"/>
    <path fill="#3C415E" d="M231.882 155.446H70.48c-3.43 0-6.207-2.778-6.207-6.207V46.709c0-3.43 2.778-6.207 6.207-6.207h161.402c3.429 0 6.207 2.777 6.207 6.207v102.53c0 3.429-2.778 6.207-6.207 6.207z"/>
    <path fill="#455A64" d="M237.984 157.001H64.829c-4.188 0-7.583-3.395-7.583-7.583v-2.475h188.316v2.475c0 4.188-3.391 7.583-7.578 7.583z"/>
    <path fill="#F5F5F5" d="M233.178 45.074H69.182v97.066h163.996V45.074z"/>
    <path fill="#263238" d="M134.291 146.943c-.004 0 .06-.004.179-.004.132 0 .315-.005.55-.005l2.142-.013c1.883-.008 4.593-.017 7.945-.034 6.765-.012 16.124-.034 26.569-.055h.196l-.098.17-1.057 1.807c-.379.647-.754 1.295-1.116 1.908l-.034.055h-.064c-14.449-.025-26.79-.051-32.882-.059h-.029l-.013-.026-1.721-2.799-.435-.711-.132-.234s.06.085.162.247c.111.166.26.405.46.711.405.626.993 1.542 1.755 2.735l-.042-.025c6.091-.013 18.432-.035 32.882-.06l-.098.055c.362-.617.736-1.261 1.116-1.908.362-.618.72-1.236 1.056-1.806l.098.17c-10.403-.021-19.723-.043-26.458-.055-3.37-.013-6.092-.026-7.983-.034l-2.177-.013c-.243-.004-.43-.004-.571-.004l-.2-.013z"/>
    <path fill="#E0E0E0" fill-rule="evenodd" d="M129.195 63.128c.303-.405.652-.763 1.044-1.065l-.247-1.359 2.1-.895.809 1.12c.49-.072.989-.076 1.491-.016l.784-1.138 2.122.852-.218 1.363c.405.303.763.652 1.065 1.044l1.359-.247.895 2.1-1.121.81c.073.49.077.988.017 1.49l1.138.784-.852 2.122-1.363-.218c-.303.405-.652.763-1.044 1.066l.247 1.358-2.1.895-.809-1.12c-.486.072-.989.076-1.491.017l-.784 1.137-2.122-.852.218-1.363c-.405-.303-.763-.652-1.065-1.044l-1.359.247-.895-2.1 1.121-.81c-.073-.485-.077-.987-.017-1.49l-1.134-.784.852-2.121 1.359.217zm2.271 2.364c-.503 1.257.102 2.684 1.359 3.186 1.256.503 2.683-.106 3.186-1.358.503-1.257-.106-2.684-1.359-3.187-1.252-.507-2.679.103-3.186 1.36z" clip-rule="evenodd"/>
    <path fill="#F5F5F5" fill-rule="evenodd" d="M120.679 107.183c.873-1.171 1.891-2.202 3.02-3.084l-.72-3.936 6.088-2.599 2.343 3.242c1.414-.204 2.862-.226 4.315-.047L138 97.471l6.142 2.466-.634 3.949c1.171.873 2.202 1.896 3.084 3.02l3.936-.72 2.598 6.088-3.241 2.343c.204 1.414.225 2.862.047 4.315l3.288 2.275-2.466 6.142-3.949-.634c-.873 1.171-1.896 2.202-3.02 3.084l.719 3.936-6.087 2.598-2.343-3.241c-1.414.204-2.862.225-4.315.047l-2.275 3.288-6.143-2.466.635-3.949c-1.171-.873-2.202-1.892-3.084-3.02l-3.936.719-2.599-6.087 3.242-2.343c-.204-1.414-.226-2.862-.047-4.315l-3.288-2.275 2.466-6.143 3.949.635zm6.586 6.842c-1.461 3.637.302 7.774 3.94 9.235 3.638 1.461 7.774-.303 9.236-3.94 1.461-3.638-.303-7.775-3.941-9.236-3.638-1.465-7.774.303-9.235 3.941z" clip-rule="evenodd"/>
    <path fill="#59647B" d="M93.56 119.167s.082-.345.435-.869c.35-.511 1.04-1.206 2.147-1.525.546-.153 1.184-.217 1.845-.081.656.136 1.342.426 1.9.941.285.247.536.55.745.886.213.337.375.712.477 1.112.218.797.162 1.691-.157 2.509-.333.81-.912 1.496-1.623 1.922-.35.221-.729.379-1.112.472-.384.103-.775.145-1.155.124-.762-.017-1.456-.281-2.023-.639-.57-.362-.988-.848-1.278-1.338-.58-.997-.596-1.976-.494-2.585.115-.622.294-.929.294-.929.025.008-.124.328-.2.941-.077.601-.03 1.547.545 2.492.285.465.694.925 1.24 1.261.545.333 1.21.575 1.93.588.357.017.728-.03 1.09-.123.362-.094.72-.243 1.052-.452.669-.405 1.214-1.052 1.529-1.819.303-.771.358-1.614.154-2.368-.094-.38-.248-.737-.443-1.057-.196-.319-.431-.609-.703-.843-.529-.49-1.176-.776-1.802-.912-.627-.136-1.24-.085-1.768.051-1.065.286-1.755.937-2.117 1.423-.37.498-.482.831-.507.818z"/>
    <path fill="#59647B" d="M89.92 115.383c0 .004-.048 0-.137-.013-.102-.013-.239-.034-.413-.06-.38-.055-.929-.136-1.636-.242l.038-.022c-.345.874-.796 2.019-1.346 3.404l-.021-.068c.554.379 1.167.801 1.823 1.252l.034.021-.004.039c-.09.737-.09 1.538.034 2.368l.008.043-.038.025c-.558.405-1.163.844-1.79 1.304l.027-.098 1.444 3.365-.098-.051 2.176-.4.056-.009.034.043c.451.579 1.026 1.159 1.691 1.648l.047.034-.009.06c-.106.677-.225 1.423-.349 2.185l-.06-.11c1.07.426 2.22.89 3.4 1.363l-.124.038c.392-.566.822-1.188 1.257-1.823l.038-.055.064.008c.733.09 1.55.09 2.36-.03l.064-.008.038.055c.405.562.852 1.176 1.3 1.794l-.132-.039 3.365-1.44-.068.124c-.128-.686-.26-1.431-.396-2.177l-.013-.068.055-.043c.592-.46 1.163-1.035 1.649-1.682l.042-.056.068.013c.733.119 1.462.234 2.186.349l-.124.069c.46-1.146.916-2.279 1.368-3.4l.038.132c-.613-.421-1.218-.843-1.819-1.261l-.055-.038.008-.068c.098-.793.085-1.589-.025-2.356l-.009-.064.055-.038c.605-.439 1.206-.869 1.794-1.295l-.034.128c-.49-1.15-.967-2.275-1.436-3.37l.115.06c-.737.132-1.465.264-2.177.396l-.059.013-.039-.047c-.494-.635-1.065-1.193-1.682-1.653l-.047-.034.008-.06c.124-.749.239-1.474.354-2.185l.06.102-3.395-1.371.102-.03c-.443.639-.86 1.239-1.261 1.814l-.03.039-.047-.004c-.839-.107-1.627-.086-2.368.021l-.043.004-.025-.038-1.291-1.798.08.021c-1.307.55-2.419 1.023-3.373 1.423l.03-.055c.153.869.277 1.584.383 2.181l.004.021-.017.013c-.634.49-1.047.933-1.307 1.227-.124.145-.218.255-.286.341-.085.085-.115.119-.115.119 0-.004.026-.047.081-.124.06-.081.145-.2.273-.349.255-.302.656-.754 1.29-1.261l-.012.034c-.111-.592-.247-1.308-.413-2.177l-.009-.038.038-.017c.95-.409 2.058-.89 3.361-1.453l.047-.021.03.043c.405.553.83 1.137 1.303 1.789l-.072-.03c.75-.111 1.555-.136 2.407-.034l-.077.034c.4-.579.814-1.18 1.253-1.823l.038-.056.064.026c1.073.43 2.202.882 3.399 1.359l.068.03-.012.072c-.111.711-.23 1.436-.35 2.185l-.038-.093c.635.473 1.218 1.035 1.725 1.687l-.098-.039c.712-.132 1.44-.264 2.177-.4l.081-.017.034.076c.469 1.095.95 2.216 1.44 3.366l.034.076-.068.052c-.588.426-1.184.86-1.794 1.299l.043-.102c.115.788.128 1.606.03 2.415l-.047-.102c.601.413 1.206.835 1.819 1.256l.072.051-.034.081-1.363 3.4-.034.085-.089-.013c-.72-.115-1.453-.234-2.186-.349l.107-.043c-.494.665-1.082 1.253-1.691 1.726l.042-.111c.137.745.273 1.491.396 2.177l.017.089-.081.034-3.37 1.436-.08.034-.051-.073c-.447-.617-.89-1.231-1.295-1.793l.102.043c-.83.119-1.666.119-2.415.025l.102-.047c-.434.631-.869 1.253-1.26 1.819l-.048.068-.076-.029c-1.18-.478-2.33-.938-3.396-1.368l-.076-.03.013-.081c.123-.758.242-1.508.353-2.185l.038.094c-.677-.507-1.26-1.099-1.72-1.691l.089.034c-.763.136-1.504.272-2.177.392l-.068.012-.026-.064-1.43-3.369-.026-.06.05-.038c.631-.452 1.236-.89 1.798-1.291l-.03.073c-.119-.844-.114-1.657-.016-2.407l.03.064-1.815-1.265-.039-.026.017-.043c.563-1.38 1.031-2.521 1.385-3.391l.012-.025.03.004c.703.119 1.244.213 1.62.277.178.034.314.055.417.077.106.021.153.03.157.034z"/>
    <path fill="#E0E0E0" fill-rule="evenodd" d="M81.6 70.43c.695-1.892 1.636-3.66 2.778-5.261l-2.497-4.92 7.025-5.828 4.375 3.361c1.789-.826 3.697-1.423 5.682-1.76l1.713-5.239 9.086.848.716 5.465c1.891.695 3.659 1.636 5.261 2.778l4.92-2.497 5.827 7.025-3.361 4.375c.827 1.789 1.423 3.693 1.76 5.683l5.244 1.712-.848 9.086-5.466.716c-.694 1.891-1.635 3.66-2.777 5.26l2.496 4.921-7.024 5.828-4.375-3.362c-1.789.827-3.698 1.423-5.683 1.76l-1.712 5.244-9.087-.848-.715-5.465c-1.892-.695-3.66-1.636-5.261-2.778l-4.92 2.496-5.828-7.024 3.361-4.375c-.826-1.79-1.422-3.698-1.759-5.683l-5.244-1.712.848-9.086 5.465-.72zm11.391 6.45c-.503 5.384 3.455 10.155 8.839 10.657 5.385.503 10.156-3.454 10.659-8.839.502-5.384-3.455-10.155-8.84-10.658-5.384-.499-10.155 3.459-10.658 8.84z" clip-rule="evenodd"/>
    <path fill="#263238" d="M238.088 146.944c0 .06-38.914.107-86.901.107-48.009 0-86.91-.047-86.91-.107 0-.059 38.906-.106 86.91-.106 47.987.004 86.901.051 86.901.106z"/>
    <path fill="#38303B" d="M144.599 16.35c-2.679 1.175-4.238 4.063-4.826 6.935-.584 2.867-.392 5.831-.648 8.75-.255 2.917-1.052 5.963-3.182 7.974-1.985 1.874-4.903 2.637-6.594 4.775-1.252 1.59-1.623 3.834-.942 5.742.682 1.909 2.39 3.413 4.367 3.847-1.338 2.117-.669 5.074 1.044 6.901 1.708 1.828 4.221 2.7 6.696 3.076 4.354.664 8.997-.068 12.673-2.492s6.249-6.633 6.241-11.033"/>
    <path fill="#706674" d="M132.995 59.622s-.243-.302-.473-.95c-.23-.643-.392-1.661-.171-2.875.111-.605.311-1.253.614-1.909.315-.651.728-1.307 1.231-1.942.997-1.282 2.339-2.462 3.685-3.728 1.346-1.273 2.581-2.539 3.582-3.79 1.014-1.24 1.777-2.48 2.292-3.57.516-1.095.792-2.041.929-2.706.081-.328.102-.592.14-.766.03-.175.051-.269.06-.269.009 0 0 .094-.017.273-.026.179-.034.443-.102.78-.115.672-.371 1.635-.878 2.751-.507 1.112-1.261 2.373-2.275 3.63-1.001 1.27-2.24 2.547-3.591 3.825-1.354 1.274-2.688 2.44-3.676 3.698-.498.622-.912 1.265-1.227 1.9-.306.639-.507 1.269-.626 1.861-.234 1.184-.098 2.181.102 2.824.209.635.422.955.401.963z"/>
    <path fill="#38303B" d="M176.641 25.973c0 3.936 1.815 7.544 3.451 8.873 2.309 1.879 5.699 2.786 7.936 3.408 3.254.912 5.981 3.757 6.39 7.114.404 3.352-1.79 6.94-5.061 7.783 2.057 2.1 1.444 5.712-.247 8.115-3.208 4.553-9.61 6.304-14.922 4.622-5.313-1.683-9.381-6.39-10.965-11.732"/>
    <path fill="#706674" d="M184.739 64.747c-.012-.034.52-.034 1.253-.55.358-.256.745-.652 1.048-1.201.311-.541.536-1.24.562-2.028.021-.784-.213-1.644-.66-2.454-.448-.813-1.108-1.576-1.913-2.245-1.614-1.358-3.804-2.206-5.925-3.429-1.057-.622-2.037-1.337-2.816-2.21-.388-.435-.724-.904-.984-1.402-.26-.498-.439-1.027-.55-1.55-.226-1.053-.204-2.075-.136-3.012.072-.942.192-1.81.273-2.603.174-1.585.153-2.884-.06-3.749-.06-.213-.111-.4-.153-.57-.047-.163-.115-.295-.154-.405-.085-.218-.128-.337-.123-.337.008-.004.059.107.162.32.046.106.119.238.174.4.051.17.111.358.175.57.243.874.285 2.19.128 3.784-.073.796-.184 1.665-.247 2.598-.06.933-.073 1.938.153 2.96.217 1.019.724 2.02 1.499 2.855.759.848 1.726 1.555 2.769 2.164 2.096 1.21 4.307 2.066 5.947 3.459.818.686 1.491 1.47 1.943 2.309.451.839.681 1.725.651 2.543-.034.813-.281 1.53-.609 2.079-.324.558-.728.954-1.103 1.21-.371.263-.72.357-.942.43-.238.055-.362.072-.362.064zM192.406 51.613c-.038-.012.341-.323.396-1.094.017-.375-.055-.848-.302-1.33-.243-.477-.635-.98-1.206-1.333-.579-.353-1.303-.575-2.092-.707-.792-.136-1.657-.187-2.564-.328-1.815-.281-3.749-.997-5.508-2.181-1.755-1.188-3.144-2.722-4.072-4.307-.938-1.584-1.427-3.19-1.67-4.55-.243-1.367-.23-2.496-.175-3.267.03-.387.064-.681.102-.881.03-.2.051-.307.06-.303.025.004-.047.426-.081 1.193-.03.767-.021 1.887.239 3.233.259 1.342.762 2.922 1.691 4.477.92 1.555 2.292 3.059 4.021 4.23 1.734 1.163 3.638 1.875 5.423 2.164.894.145 1.759.2 2.564.35.801.14 1.547.374 2.143.754.601.379.993.907 1.235 1.41.247.502.311.996.281 1.384-.034.392-.174.673-.281.848-.055.085-.11.14-.144.183-.039.038-.056.055-.06.055z"/>
    <path fill="#F7B094" d="M146.516 72.12c.563-5.882 1.044-12.085 1.044-12.085s-7.451-2.002-8.047-12.042c-.571-9.572 3.127-31.191 3.127-31.191 11.34-3.374 23.966.856 30.884 10.352l-5.342 47.701c-.622 5.538-5.874 9.415-11.8 8.708-5.989-.716-10.403-5.836-9.866-11.442z"/>
    <path fill="#38303B" d="M143.768 34.083c-.089.67.401 1.295 1.095 1.398.694.106 1.329-.346 1.419-1.014.089-.67-.401-1.295-1.095-1.402-.694-.102-1.329.35-1.419 1.018zM141.852 32.462c.14.179 1.171-.435 2.534-.298 1.364.119 2.296.92 2.463.766.081-.068-.052-.379-.456-.74-.396-.359-1.099-.738-1.951-.819-.852-.08-1.598.162-2.036.443-.452.281-.627.567-.554.648zM157.706 35.699c-.09.668.4 1.295 1.095 1.397.694.106 1.329-.35 1.418-1.014.09-.669-.4-1.295-1.095-1.402-.694-.102-1.329.35-1.418 1.019z"/>
    <path fill="#38303B" d="M156.035 34.358c.141.18 1.172-.434 2.535-.298 1.363.12 2.296.92 2.462.767.081-.068-.051-.38-.456-.741-.396-.358-1.099-.737-1.951-.818-.852-.081-1.597.162-2.036.443-.451.28-.626.566-.554.647z"/>
    <path fill="#E89C82" d="M150.091 43.989c.013-.077-.818-.307-2.177-.618-.345-.072-.669-.17-.703-.418-.055-.26.124-.621.333-1.01l1.29-2.55c1.802-3.634 3.144-6.638 2.995-6.71-.149-.072-1.725 2.816-3.531 6.454-.435.898-.852 1.75-1.249 2.573-.17.383-.443.809-.315 1.35.068.268.307.486.524.567.217.089.413.115.584.14 1.38.209 2.236.298 2.249.222zM147.559 60.035s6.607 1.082 13.585-2.228c0 0-3.881 6.475-13.683 4.575l.098-2.347z"/>
    <path fill="#E66E60" d="M154.009 45.325c-.221-.034-.37 1.444-1.738 2.372-1.367.93-2.93.61-2.965.814-.029.09.324.324.989.405.651.085 1.627-.03 2.466-.596.835-.567 1.253-1.398 1.363-1.998.12-.614-.012-.997-.115-.997z"/>
    <path fill="#E89C82" d="M168.817 37.701c1.078-.102 2.19.039 3.161.516.971.477 1.785 1.316 2.121 2.343.341 1.03.183 2.18-.285 3.16-.464.98-1.218 1.798-2.062 2.48-.605.49-1.282.924-2.045 1.086-.762.158-1.627 0-2.168-.558"/>
    <path fill="#AA6550" d="M168.77 44.165c-.124.026.273.712 1.265.546.477-.077.971-.444 1.295-.925.328-.494.562-1.044.699-1.704.132-.652.051-1.367-.264-1.904-.299-.541-.835-.899-1.308-.958-.993-.12-1.368.536-1.257.57.073.09.494-.23 1.129-.008.613.175 1.142 1.095.899 2.151-.226 1.078-.741 2.032-1.346 2.224-.631.247-1.035-.073-1.112.008z"/>
    <path fill="#38303B" d="M147.414 21.032c-1.456 3.387-4.575 6.006-8.157 6.871-.213-2.44-.354-4.912.047-7.327.4-2.415 1.384-4.8 3.143-6.5 1.764-1.7 4.375-2.616 6.744-1.986"/>
    <path fill="#38303B" d="M148.095 16.549c-1.232 3.092-.725 6.811 1.286 9.465s5.453 4.145 8.763 3.796c.647-.069 1.329-.196 1.934.038.651.251 1.077.86 1.465 1.44 1.576 2.356 3.242 4.8 5.721 6.164 2.483 1.363 6.036 1.231 7.697-1.065.81-1.116 1.044-2.535 1.232-3.902.63-4.588.886-9.517-1.3-13.598-1.623-3.033-4.477-5.29-7.638-6.658-3.156-1.367-6.615-1.912-10.049-2.121-1.998-.124-4.064-.124-5.912.63-1.853.758-3.451 2.437-3.557 4.435"/>
    <path fill="#706674" d="M175.76 33.78c-.009 0-.047-.114-.119-.336-.069-.226-.184-.55-.333-.967-.311-.83-.83-2.01-1.682-3.348-.857-1.33-2.066-2.808-3.694-4.124-1.623-1.329-3.684-2.394-5.917-3.331-2.236-.937-4.417-1.708-6.33-2.603-1.912-.886-3.544-1.891-4.775-2.914-1.227-1.026-2.053-2.04-2.53-2.794-.239-.38-.409-.677-.507-.895-.107-.208-.158-.323-.149-.323.008-.005.072.102.187.306.111.21.294.499.537.87.494.732 1.329 1.72 2.56 2.721 1.231.997 2.854 1.981 4.762 2.854 1.905.882 4.09 1.645 6.331 2.586 2.236.937 4.323 2.024 5.955 3.374 1.64 1.338 2.85 2.841 3.697 4.192.844 1.359 1.347 2.56 1.632 3.4.141.42.243.753.298.983.056.23.085.35.077.35z"/>
    <path fill="#706674" d="M172.688 33.24c-.008.004-.064-.094-.166-.281-.106-.183-.268-.456-.507-.784-.468-.656-1.269-1.533-2.454-2.368-1.175-.848-2.73-1.61-4.498-2.36-.882-.38-1.815-.771-2.76-1.223-.946-.451-1.909-.959-2.863-1.53-1.913-1.14-3.604-2.449-4.963-3.825-1.363-1.371-2.385-2.798-3.097-4.072-.72-1.274-1.124-2.39-1.363-3.17-.111-.391-.191-.698-.234-.907-.047-.209-.064-.32-.06-.324.009 0 .043.107.098.311.056.21.149.507.269.895.259.767.685 1.866 1.414 3.118.724 1.253 1.751 2.654 3.105 4.009 1.355 1.354 3.033 2.65 4.933 3.783.95.566 1.904 1.069 2.846 1.525.941.451 1.87.843 2.752 1.23 1.763.763 3.331 1.547 4.507 2.42 1.184.86 1.981 1.764 2.432 2.441.23.337.383.618.477.81.094.195.136.298.132.302zM139.291 31.825c-.008.004-.038-.077-.098-.226-.055-.153-.14-.375-.234-.669-.158-.592-.379-1.465-.426-2.573-.047-1.099.038-2.432.439-3.842.4-1.402 1.061-2.905 2.113-4.23.507-.677 1.112-1.248 1.712-1.768.618-.503 1.253-.933 1.858-1.329 1.218-.792 2.304-1.516 3.075-2.287.784-.759 1.261-1.517 1.504-2.075.247-.558.302-.895.324-.89.008 0-.005.085-.039.242-.034.158-.098.392-.213.678-.225.575-.69 1.363-1.478 2.147-.771.796-1.866 1.546-3.071 2.343-.601.404-1.231.83-1.836 1.329-.588.51-1.18 1.073-1.679 1.738-1.035 1.299-1.691 2.773-2.095 4.153-.405 1.385-.503 2.697-.478 3.783.03 1.095.226 1.96.358 2.556l.196.677c.056.158.077.239.068.243z"/>
    <path fill="#4F4155" d="M163.703 51.535c-2.309 0-4.622-.788-6.33-2.321l.273-.303c2.96 2.663 7.842 2.973 11.118.703 3.271-2.27 4.694-6.952 3.237-10.658l.375-.15c1.525 3.873.039 8.767-3.382 11.14-1.538 1.07-3.412 1.59-5.291 1.59z"/>
    <path fill="#4F4155" d="M160.408 49.804c0 1.082-.877 1.963-1.964 1.963-1.082 0-1.964-.877-1.964-1.963 0-1.087.878-1.964 1.964-1.964 1.082 0 1.964.882 1.964 1.964z"/>
    <path fill="#FFE584" d="M180.04 40.618c.442-3.603-2.121-6.882-5.724-7.324-3.604-.441-6.883 2.121-7.325 5.725-.441 3.603 2.121 6.882 5.725 7.324 3.603.442 6.882-2.121 7.324-5.725z"/>
    <path fill="#FFE584" d="M172.453 38.91c-.043-.004-.026-.6.038-1.666l.077-1.947c.008-.758.034-1.623.004-2.577 0-.477-.034-.975-.059-1.495-.017-.52-.077-1.056-.132-1.615-.043-.558-.15-1.124-.222-1.716l-.166-.886c-.051-.303-.115-.605-.196-.908-.558-2.432-1.606-5.04-3.442-7.246-1.832-2.21-4.23-3.693-6.552-4.592-2.33-.912-4.571-1.35-6.453-1.623-1.888-.264-3.434-.345-4.503-.417-1.069-.047-1.661-.094-1.661-.137 0-.042.592-.08 1.665-.11 1.074 0 2.633.012 4.55.221 1.912.217 4.2.614 6.607 1.52 2.398.896 4.911 2.42 6.828 4.734 1.917 2.304 2.986 5.026 3.523 7.523.077.31.141.622.188.928.051.307.106.61.153.912.064.6.162 1.184.196 1.75.043.567.089 1.112.094 1.64.017.529.034 1.031.021 1.513 0 .963-.055 1.832-.098 2.594-.064.763-.124 1.419-.183 1.951-.132 1.07-.234 1.653-.277 1.649z"/>
    <path fill="#F5C54E" d="M178.222 39.827c0 2.5-2.028 4.524-4.524 4.524-2.501 0-4.524-2.024-4.524-4.524s2.028-4.524 4.524-4.524c2.5 0 4.524 2.023 4.524 4.524z"/>
    <path fill="#9F7A1E" d="M172.21 35.605c-.004-.008.068-.042.201-.106.136-.06.345-.132.626-.187.549-.098 1.435-.103 2.347.4.451.247.895.63 1.205 1.154.32.52.49 1.172.486 1.858-.004.681-.217 1.41-.669 2.01-.451.601-1.141 1.04-1.912 1.223-.767.187-1.585.12-2.262-.205-.682-.323-1.193-.881-1.508-1.486-.316-.61-.435-1.274-.388-1.879.055-.609.285-1.142.558-1.576.554-.873 1.321-1.325 1.874-1.461.277-.077.503-.081.652-.072.149.012.226.025.226.034 0 .03-.32-.047-.856.119-.529.153-1.248.609-1.768 1.461-.256.422-.464.937-.511 1.512-.039.575.081 1.201.383 1.777.302.57.788 1.09 1.423 1.388.635.298 1.397.367 2.126.188.724-.175 1.375-.584 1.797-1.146.426-.558.626-1.244.639-1.887.013-.648-.145-1.27-.439-1.764-.285-.498-.702-.873-1.128-1.116-.861-.503-1.717-.52-2.262-.452-.55.086-.831.239-.84.213zM173.66 44.282c-.055.009-.183-.464-.204-1.07-.026-.6.059-1.085.119-1.081.06.004.068.486.094 1.073.017.588.051 1.07-.009 1.078z"/>
    <path fill="#9F7A1E" d="M176.157 43.405c-.056.022-.264-.387-.469-.916-.204-.528-.328-.97-.272-.992.055-.021.264.388.468.916.205.528.328.971.273.992zM177.838 41.435c-.039.043-.35-.175-.695-.486-.345-.31-.588-.6-.549-.643.038-.042.349.175.694.486.341.31.588.6.55.643zM177.958 38.687c-.021.055-.243.025-.503-.069-.255-.093-.451-.213-.43-.268.021-.055.243-.026.503.068.255.094.447.213.43.269zM170.703 43.27c-.056-.018.064-.5.34-1.04.277-.541.597-.916.644-.882.051.034-.188.451-.456.98-.268.524-.469.962-.528.941zM169.356 40.965c-.042-.043.217-.362.575-.711.358-.354.682-.6.724-.563.043.043-.217.362-.575.712-.362.353-.686.605-.724.562zM170.41 37.83c.017.055-.171.153-.409.217-.243.064-.448.072-.465.013-.017-.056.171-.154.409-.218.243-.063.452-.068.465-.012z"/>
    <path fill="#E89C82" d="M204.789 73.79c-.426-2.406-1.368-3.714-2.066-4.4-.66-.643-1.295-1.312-2.083-1.789-.954-.583-2.254-1.303-3.084-1.482-1.027-.222-1.278-1.56-.418-1.939.861-.379 3.706.162 6.445 2.177 2.735 2.015 1.355-3.084.882-4.954-.473-1.866-1.657-7.702-1.193-8.285.678-.857 1.747-.273 2.173 1.597.43 1.896 2.104 7.412 3.084 7.144.963-.264-1.563-9.738-1.563-9.738s-.869-1.947.251-2.296c2.019-.63 3.962 9.614 4.124 10.594.11.682 1.188.426 1.026-.298-.162-.746-2.743-9.393-.694-10.058 1.572-.507 1.678 8.418 3.212 9.939 1.538 1.52-.776-6.778.749-7.2.567-.157 1.014-.196 1.649 4.742.341 2.654.119 6.313 1.154 11.378"/>
    <path fill="#E89C82" d="M199.685 92.841l9.312 13.364-4.473-34.463 13.312-5.248s16.801 64.405-5.734 65.312c0 0-15.591-.426-27.229-27.42l14.812-11.545z"/>
    <path fill="#C8785C" d="M214.62 66.237c.026.034-.289.243-.702.703-.405.451-.895 1.193-1.091 2.147l-.051.251-.183-.183c-.209-.209-.435-.417-.69-.605-.967-.715-2.049-1.018-2.829-1.099-.788-.085-1.282 0-1.291-.047-.008-.03.482-.187 1.304-.153.813.03 1.964.315 2.982 1.07.268.195.507.417.72.638l-.239.068c.226-1.018.775-1.776 1.235-2.215.465-.443.823-.6.835-.575z"/>
    <path fill="#257DFC" d="M192.994 120.703l-11.268-14.296-2.926 14.62c-1.185 5.921-.575 12.064 1.755 17.636l1.452 3.476h-52.174l1.303-4.644c.737-5.691-.251-11.633-.077-19.782l-1.448-9.189-7.893 33.619H98.51s12.737-52.18 20.715-62.505c10.058-13.018 27.634-11.302 27.634-11.302l10.769 16.878 10.514-15.216s18.07-3.843 32.179 20.447l7.548 12.937-3.506-26.636 16.337-3.77s5.9 26.168 5.512 40.183c-.345 12.515-5.674 19.084-13.056 19.727-11.6 1.014-20.162-12.183-20.162-12.183z"/>
    <path fill="#257DFC" d="M146.861 68.338l.183-2.1s7.975 1.772 10.65 15.698c0 0 2.684-12.852 11.272-14.147l1.448 3.702-5.274 13.734-9.265 2.709-9.009-2.71-4.098-8.14 4.093-8.746z"/>
    <path fill="#A5C5F4" d="M124.635 73.873c.008 0 .021.124.042.362.017.256.043.6.077 1.035.06.9.153 2.203.281 3.809.256 3.216.699 7.646 1.393 12.52.699 4.873 1.517 9.252 2.173 12.408.328 1.581.6 2.854.796 3.736.094.426.167.767.218 1.014.046.234.068.358.064.358-.009 0-.043-.119-.103-.349-.064-.247-.149-.584-.255-1.006-.222-.873-.52-2.147-.865-3.723-.694-3.152-1.538-7.531-2.236-12.409-.695-4.877-1.112-9.316-1.334-12.537-.111-1.61-.183-2.913-.213-3.816-.017-.435-.025-.784-.034-1.04-.013-.238-.013-.362-.004-.362zM170.221 69.5c.005.004-.034.073-.115.2l-.358.554c-.328.503-.779 1.189-1.329 2.028-1.116 1.717-2.624 4.11-4.187 6.811-.064.107-.124.213-.179.311l-.102.175-.085-.183c-.32-.686-.648-1.355-1.146-1.845-.49-.485-1.155-.78-1.777-.664-.622.098-1.116.524-1.465.963-.354.447-.579.937-.733 1.405-.302.933-.477 1.721-.698 2.233-.103.26-.209.447-.277.575-.077.123-.12.187-.128.183-.017-.009.145-.269.332-.788.196-.516.349-1.295.635-2.25.145-.477.37-.992.733-1.465.357-.464.877-.929 1.567-1.044.695-.136 1.431.192 1.951.707.533.52.869 1.215 1.193 1.9l-.187-.008c.055-.098.119-.205.178-.311 1.568-2.705 3.097-5.09 4.248-6.79.575-.848 1.047-1.53 1.384-1.994.158-.217.29-.392.392-.532.094-.115.145-.175.153-.17z"/>
    <path fill="#A5C5F4" d="M162.627 77.384c.005.004-.025.064-.085.18l-.281.493-1.069 1.798c-.465.763-1.01 1.657-1.61 2.65l-.959 1.559c-.17.272-.341.55-.515.826-.052.073-.111.145-.201.205-.089.06-.221.08-.323.042-.213-.068-.32-.26-.405-.387-1.5-2.254-2.611-4.426-3.489-5.956-.43-.77-.784-1.388-1.035-1.814-.247-.426-.388-.66-.375-.67.004-.004.047.052.124.158.072.107.187.264.319.473.273.413.648 1.023 1.095 1.78.907 1.513 2.045 3.677 3.531 5.914.094.144.179.268.294.302.103.038.205-.043.294-.166.171-.277.341-.55.511-.814.337-.536.661-1.056.967-1.555.618-.98 1.176-1.87 1.649-2.624.464-.724.843-1.316 1.129-1.759.128-.187.23-.345.315-.473.072-.11.111-.166.119-.162zM129.339 108.34c-.005.005-.081-.085-.222-.255-.136-.175-.354-.422-.596-.771-.503-.677-1.172-1.713-1.862-3.059-.694-1.346-1.376-3.02-1.951-4.937-.579-1.917-1.035-4.077-1.359-6.36-.622-4.58-.724-8.758-.911-11.77-.086-1.508-.162-2.726-.226-3.565-.03-.405-.051-.729-.073-.972-.012-.221-.017-.34-.012-.34.004 0 .025.115.055.336.026.222.068.545.111.967.089.84.191 2.058.294 3.566.225 3.011.353 7.186.971 11.748.324 2.275.771 4.426 1.333 6.335.563 1.908 1.227 3.582 1.9 4.928.669 1.351 1.312 2.39 1.794 3.08.23.354.438.609.562.793.132.174.196.272.192.276z"/>
    <path fill="#A5C5F4" d="M127.358 98.963c.013.064-.605.196-1.261.583-.66.38-1.077.852-1.124.814-.047-.03.319-.588 1.018-.997.694-.409 1.363-.451 1.367-.4zM126.962 93.49c.009.064-.767.132-1.589.571-.831.43-1.325 1.031-1.372.988-.046-.02.397-.715 1.274-1.171.869-.469 1.691-.439 1.687-.388zM125.767 88.49c.004.064-.609.094-1.261.427-.66.319-1.052.787-1.103.75-.047-.026.298-.589 1.009-.938.703-.358 1.363-.294 1.355-.239zM125.181 83.327c.009.06-.532.166-1.146.43-.617.26-1.064.58-1.103.533-.038-.039.371-.452 1.023-.725.643-.28 1.222-.293 1.226-.238zM124.845 79.151c.008.064-.541.162-1.15.452-.614.285-1.04.643-1.082.596-.043-.034.34-.485.992-.788.648-.306 1.24-.315 1.24-.26zM191.511 78.62c.008.004-.035.097-.12.276-.098.196-.225.456-.383.78-.341.673-.818 1.653-1.389 2.87-.575 1.22-1.222 2.689-1.904 4.333-.673 1.649-1.376 3.476-2.045 5.419-.664 1.947-1.235 3.817-1.721 5.533-.473 1.717-.869 3.272-1.163 4.584-.302 1.312-.528 2.381-.673 3.118-.072.354-.132.635-.174.848-.043.196-.069.294-.077.294-.009 0 .004-.107.034-.303.034-.217.081-.502.136-.856.12-.745.324-1.819.61-3.135.276-1.321.656-2.884 1.12-4.605.473-1.721 1.044-3.6 1.708-5.546.673-1.947 1.38-3.775 2.066-5.423.694-1.645 1.355-3.11 1.947-4.32.588-1.214 1.086-2.185 1.452-2.845.175-.316.316-.571.418-.763.098-.175.153-.264.158-.26zM183.805 109.04c-.009 0 .012-.106.059-.307.056-.217.128-.507.217-.869.196-.775.473-1.857.81-3.186.686-2.692 1.593-6.42 2.709-10.51.562-2.044 1.138-3.982 1.7-5.733.566-1.746 1.112-3.31 1.614-4.61.239-.65.486-1.23.695-1.741.204-.512.396-.95.558-1.304.153-.34.277-.61.37-.814.085-.183.137-.28.141-.276.008.004-.03.106-.102.294-.086.208-.196.485-.333.83-.149.358-.328.797-.524 1.312-.196.516-.43 1.095-.66 1.751-.486 1.3-1.009 2.867-1.568 4.614-.545 1.75-1.116 3.689-1.678 5.729-1.116 4.085-2.049 7.808-2.769 10.492-.358 1.342-.656 2.424-.873 3.174l-.256.856c-.068.2-.106.302-.11.298z"/>
    <path fill="#A5C5F4" d="M184.901 102.661c-.051.034-.328-.337-.835-.537-.502-.213-.962-.136-.975-.2-.026-.051.477-.234 1.052.004.579.235.809.716.758.733zM186.486 98.396c-.055.025-.277-.61-.937-1.027-.652-.434-1.32-.37-1.32-.434-.005-.026.157-.081.43-.073.272.009.652.102 1.005.328.354.23.592.537.712.78.119.247.132.417.11.426zM187.672 93.709c-.051.038-.392-.49-1.077-.75-.678-.277-1.287-.128-1.3-.192-.008-.025.137-.097.388-.136.251-.038.618-.013.988.132.367.145.648.38.81.58.161.2.213.353.191.366zM189.069 89.202c-.055.03-.276-.387-.766-.639-.486-.264-.955-.213-.963-.272-.004-.026.111-.077.307-.09.196-.012.481.034.754.175.272.145.468.353.57.524.103.166.124.29.098.302zM190.71 85.065c-.055.03-.281-.477-.865-.732-.575-.277-1.107-.124-1.12-.184-.008-.02.111-.102.337-.14.225-.038.553-.017.873.132.319.149.549.383.664.58.115.195.132.336.111.344zM154.857 85.215c-.025.004-.076-.145-.055-.388.017-.243.123-.58.358-.878.234-.298.537-.481.771-.553.234-.077.387-.06.392-.035.017.06-.575.167-.997.72-.439.533-.409 1.133-.469 1.133zM157.654 88.572c-.055.008-.2-.741-.204-1.678-.009-.938.127-1.687.183-1.683.059.008.021.758.03 1.678 0 .929.051 1.679-.009 1.683zM160.832 84.296c-.06.017-.192-.455-.635-.813-.434-.37-.92-.418-.916-.482 0-.025.128-.055.328-.02.2.029.477.136.72.34.243.204.396.456.46.647.073.192.068.32.043.328zM162.907 80.823c-.06.008-.132-.469-.524-.878-.379-.417-.856-.524-.844-.583.005-.026.132-.039.328.017.196.055.452.191.669.421.213.23.332.495.375.695.043.196.021.324-.004.328z"/>
    <path fill="#263238" d="M152.74 82.037c-.025.004-.093-.162-.102-.448-.013-.285.056-.685.26-1.073.209-.388.503-.669.746-.814.242-.149.417-.187.426-.162.034.056-.61.35-.989 1.078-.392.716-.281 1.415-.341 1.419z"/>
    <path fill="#0D6FFC" d="M146.754 68.302c.912 3.502 2.437 9.201 4.085 13.666.077.204.158.417.316.566.417.4 1.137.154 1.533-.268.375-.4.592-.92.899-1.372.307-.456.758-.873 1.308-.894.447-.017.864.247 1.158.583.294.337.49.746.712 1.133.119.21.268.435.502.486.235.047.495-.166.358-.422l-1.461-3.782s-.669-2.774-2.99-2.343c-2.595.48-1.419 4.74-1.419 4.74s-5.039-12.238-5.001-12.093z"/>
    <path fill="#A5C5F4" d="M157.698 81.93c-.009.004-.051-.081-.124-.247-.076-.166-.178-.413-.311-.729-.264-.664-.626-1.584-1.073-2.713-.115-.286-.239-.584-.371-.89-.136-.307-.285-.61-.532-.861-.486-.494-1.24-.83-2.019-.754-.379.051-.78.204-1.065.477-.29.277-.435.686-.575 1.103-.137.4-.132.848-.09 1.295.043.448.132.903.239 1.355.042.166.081.332.119.486l-.2.06c-.597-1.717-1.287-3.306-1.913-4.746-.63-1.44-1.205-2.73-1.657-3.826-.451-1.094-.784-1.993-.984-2.624-.106-.31-.17-.562-.217-.728-.047-.166-.068-.256-.06-.26.009 0 .043.081.098.247.06.162.136.405.256.716.221.618.575 1.508 1.043 2.59.469 1.086 1.057 2.368 1.696 3.804s1.333 3.024 1.934 4.754l-.2.06c-.039-.154-.081-.324-.12-.49-.106-.46-.2-.92-.243-1.385-.042-.46-.051-.937.103-1.38.14-.417.298-.86.63-1.18.341-.31.758-.468 1.184-.524.857-.08 1.649.29 2.169.826.264.273.426.61.553.916.133.311.252.614.363.9l1.013 2.734.277.746c.051.174.081.268.077.268z"/>
    <path fill="#0D6FFC" d="M157.902 81.83c-.09.06-.026.218.081.24.106.02.208-.04.294-.107.541-.422.847-1.07 1.227-1.636.383-.571.941-1.116 1.627-1.12.728-.005 1.312.609 1.674 1.24.358.634.605 1.35 1.125 1.865 2.607-3.825 4.694-8.009 6.181-12.392-.857.592-1.415 1.512-1.951 2.407l-4.15 6.922c-.289-.673-.634-1.342-1.167-1.844-.536-.503-1.299-.814-2.01-.644-.81.188-1.368.92-1.764 1.649-.579 1.07-.954 2.245-1.108 3.446"/>
    <path fill="#A5C5F4" d="M212.305 115.952c-.013.009-.111-.158-.277-.464-.166-.307-.396-.754-.665-1.317-.541-1.12-1.227-2.7-1.87-4.489-.639-1.79-1.112-3.447-1.41-4.657-.149-.604-.255-1.094-.324-1.439-.068-.341-.098-.533-.08-.537.012-.004.072.183.161.515.103.375.23.852.388 1.419.332 1.197.826 2.841 1.461 4.626.639 1.781 1.304 3.365 1.806 4.499.243.536.443.988.601 1.341.149.32.222.495.209.503zM208.251 115.153c-.012.004-.072-.162-.17-.464-.098-.303-.222-.75-.358-1.304-.273-1.108-.558-2.662-.699-4.4-.136-1.738-.093-3.323 0-4.456.047-.567.098-1.027.15-1.342.046-.315.081-.49.093-.486.013 0 .009.179-.012.494-.026.316-.056.776-.081 1.342-.056 1.133-.073 2.705.063 4.431.137 1.725.401 3.275.635 4.387.115.554.217 1.005.29 1.312.068.307.102.482.089.486zM221.272 77.862c.004-.008.106.03.328.124l.063.03-.068.025c-.924.333-4.166 1.36-8.132 2.08-2.377.438-4.554.69-6.13.817-.788.064-1.427.102-1.87.12-.443.016-.686.016-.686.004 0-.013.243-.043.682-.085.477-.047 1.103-.111 1.861-.184 1.572-.166 3.736-.439 6.105-.877 3.953-.72 7.203-1.679 8.153-1.926l-.004.051c-.213-.115-.307-.17-.302-.178zM217.599 76.016c-.004-.005.043-.069.175-.107.128-.038.345-.017.545.12.192.132.409.4.354.758-.03.17-.15.336-.311.426-.162.093-.358.128-.546.102-.187-.026-.366-.102-.502-.234-.137-.132-.205-.32-.201-.49.013-.354.252-.584.456-.699.213-.115.422-.123.55-.09.132.035.183.094.179.099-.005.038-.29-.124-.652.115-.166.11-.341.32-.337.57-.008.256.23.478.537.512.298.042.592-.115.639-.358.051-.239-.098-.473-.251-.596-.158-.128-.328-.17-.443-.158-.119.013-.179.051-.192.03z"/>
    <path fill="#DDEBFF" d="M165.459 87.055h2.557v1.334c0 1.773-1.059 2.79-2.557 2.79v-.824c.729 0 1.279-.317 1.526-.99h-1.526v-.797h1.677v-.729h-1.677v-.784zm4.564 2.365h-.522v1.966h-.88v-4.44h.88v1.621h.522v.853zM174.822 90.411v.825h-4.482v-.825h1.801v-.715h-1.567v-2.64h4v2.64h-1.553v.715h1.801zm-3.369-1.54h2.255v-1.003h-2.255v1.003zM177.964 89.117c0 1.458-.55 2.118-1.374 2.118-.825 0-1.375-.66-1.375-2.118 0-1.457.55-2.117 1.375-2.117.824 0 1.374.646 1.374 2.117zm-.866 0c0-.99-.22-1.306-.508-1.306-.289 0-.509.317-.509 1.306 0 1.004.22 1.306.509 1.306.288 0 .508-.316.508-1.306zm2.722.303h-.522v1.966h-.88v-4.44h.88v1.621h.522v.853z"/>
</svg>
